<svg xmlns="http://www.w3.org/2000/svg" version="1.1" xmlns:xlink="http://www.w3.org/1999/xlink" xmlns:svgjs="http://svgjs.dev/svgjs" width="1500" height="1500" viewBox="0 0 1500 1500"><rect width="1500" height="1500" fill="#000000"></rect><g transform="matrix(0.6666666666666666,0,0,0.6666666666666666,248.2932022347823,234.00752688172048)"><svg viewBox="0 0 241 248" data-background-color="#ffffff" preserveAspectRatio="xMidYMid meet" height="1543" width="1500" xmlns="http://www.w3.org/2000/svg" xmlns:xlink="http://www.w3.org/1999/xlink"><g id="tight-bounds" transform="matrix(1,0,0,1,0.41133826141745544,0.4000000000000057)"><svg viewBox="0 0 240.1773234771651 247.2" height="247.2" width="240.1773234771651"><g><svg viewBox="0 0 397.4975999999999 409.1202503942559" height="247.2" width="240.1773234771651"><g><rect width="397.4975999999999" height="11.703180675100311" x="0" y="209.98468695771425" fill="#ffffff" opacity="1" stroke-width="0" stroke="transparent" fill-opacity="1" class="rect-yte-0" data-fill-palette-color="primary" rx="1%" id="yte-0" data-palette-color="#6700ff"></rect></g><g><rect width="397.4975999999999" height="11.703180675100311" x="0" y="237.00616694577306" fill="#ffffff" opacity="1" stroke-width="0" stroke="transparent" fill-opacity="1" class="rect-yte-1" data-fill-palette-color="primary" rx="1%" id="yte-1" data-palette-color="#6700ff"></rect></g><g transform="matrix(1,0,0,1,0.9887999999999693,279.3459462467904)"><svg viewBox="0 0 395.52 129.77430414746541" height="129.77430414746541" width="395.52"><g id="textblocktransform"><svg viewBox="0 0 395.52 129.77430414746541" height="129.77430414746541" width="395.52" id="textblock"><g><svg viewBox="0 0 395.52 129.77430414746541" height="129.77430414746541" width="395.52"><g transform="matrix(1,0,0,1,0,0)"><svg width="395.52" viewBox="2.15 -35.25 108.49 35.6" height="129.77430414746541" data-palette-color="#6700ff"><path d="M2.15-31.5L2.15-35 28.4-35 28.4-31.5 17.3-31.5 17.3 0 13.3 0 13.3-31.5 2.15-31.5ZM33.6 0L33.6-25 37.3-25 37.3 0 33.6 0ZM35.5-30L35.5-30Q34.35-30 33.6-30.75 32.85-31.5 32.85-32.6L32.85-32.6Q32.85-33.75 33.6-34.5 34.35-35.25 35.5-35.25L35.5-35.25Q36.55-35.25 37.32-34.5 38.1-33.75 38.1-32.6L38.1-32.6Q38.1-31.5 37.32-30.75 36.55-30 35.5-30ZM43.6-25L47.35-25 47.35-32 51.1-32 51.1-25 57.75-25 57.75-21.5 51.1-21.5 51.1-8.05Q51.1-5.75 52.07-4.7 53.05-3.65 54.57-3.45 56.1-3.25 57.75-3.45L57.75-3.45 57.75-0.2Q55.8 0.25 53.92 0.05 52.05-0.15 50.57-1.07 49.1-2 48.22-3.7 47.35-5.4 47.35-8.05L47.35-8.05 47.35-21.5 43.6-21.5 43.6-25ZM82.44 0L78.99 0 78.69-4.5Q77.64-2.2 75.59-0.93 73.54 0.35 70.39 0.35L70.39 0.35Q67.69 0.35 65.79-0.5 63.89-1.35 62.87-2.93 61.84-4.5 61.84-6.65L61.84-6.65Q61.84-9.8 64.19-11.83 66.54-13.85 70.99-14.3L70.99-14.3 78.69-15.15 78.69-17.15Q78.69-19.25 77.14-20.53 75.59-21.8 72.94-21.8L72.94-21.8Q70.34-21.8 68.62-20.6 66.89-19.4 66.24-17.15L66.24-17.15 62.84-18.35Q63.84-21.65 66.52-23.5 69.19-25.35 73.04-25.35L73.04-25.35Q77.49-25.35 79.97-23.08 82.44-20.8 82.44-16.9L82.44-16.9 82.44 0ZM78.69-11.15L78.69-11.95 70.94-11.05Q68.44-10.75 67.14-9.68 65.84-8.6 65.84-6.85L65.84-6.85Q65.84-5.1 67.12-4.05 68.39-3 70.79-3L70.79-3Q73.54-3 75.29-4.1 77.04-5.2 77.87-7.08 78.69-8.95 78.69-11.15L78.69-11.15ZM89.74 0L89.74-25 93.19-25 93.39-21.45Q94.59-23.3 96.54-24.33 98.49-25.35 101.09-25.35L101.09-25.35Q103.94-25.35 106.09-24.13 108.24-22.9 109.44-20.48 110.64-18.05 110.64-14.4L110.64-14.4 110.64 0 106.89 0 106.89-13.95Q106.89-17.85 105.22-19.88 103.54-21.9 100.39-21.9L100.39-21.9Q97.14-21.9 95.32-19.75 93.49-17.6 93.49-13.4L93.49-13.4 93.49 0 89.74 0Z" opacity="1" transform="matrix(1,0,0,1,0,0)" fill="#ffffff" class="wordmark-text-0" data-fill-palette-color="primary" id="text-0"></path></svg></g></svg></g></svg></g></svg></g><g transform="matrix(1,0,0,1,100.78804548213712,0)"><svg viewBox="0 0 195.92150903572568 179.34808833179721" height="179.34808833179721" width="195.92150903572568"><g><svg xmlns="http://www.w3.org/2000/svg" xmlns:xlink="http://www.w3.org/1999/xlink" version="1.1" x="0" y="0" viewBox="6.075 11.966 82.75 75.75" enable-background="new 0 0 100 100" xml:space="preserve" height="179.34808833179721" width="195.92150903572568" class="icon-icon-0" data-fill-palette-color="accent" id="icon-0"><path d="M82.325 11.966H12.575A6.51 6.51 0 0 0 6.075 18.466V81.216C6.075 84.8 8.991 87.716 12.575 87.716H82.325C85.909 87.716 88.825 84.8 88.825 81.216V18.466C88.825 14.882 85.909 11.966 82.325 11.966M27.7 82.716H12.575C11.748 82.716 11.075 82.043 11.075 81.216V36.466H27.7zM83.825 81.216C83.825 82.043 83.152 82.716 82.325 82.716H32.7V36.466H83.825zM83.825 31.466H11.075V18.466C11.075 17.639 11.748 16.966 12.575 16.966H82.325C83.152 16.966 83.825 17.639 83.825 18.466zM76.951 20.633C75.021 20.633 73.451 22.203 73.451 24.133S75.021 27.633 76.951 27.633 80.451 26.063 80.451 24.133 78.881 20.633 76.951 20.633M66.951 20.633C65.021 20.633 63.451 22.203 63.451 24.133S65.021 27.633 66.951 27.633 70.451 26.063 70.451 24.133 68.881 20.633 66.951 20.633M56.951 20.633C55.021 20.633 53.451 22.203 53.451 24.133S55.021 27.633 56.951 27.633 60.451 26.063 60.451 24.133 58.881 20.633 56.951 20.633" fill="#ffffff" data-fill-palette-color="accent"></path></svg></g></svg></g><g></g></svg></g><defs></defs></svg><rect width="240.1773234771651" height="247.2" fill="none" stroke="none" visibility="hidden"></rect></g></svg></g></svg>